<svg width="21.000000" height="21.000000" viewBox="0 0 21 21" fill="none" xmlns="http://www.w3.org/2000/svg" xmlns:xlink="http://www.w3.org/1999/xlink">
	<desc>
			Created with Pixso.
	</desc>
	<defs>
		<clipPath id="clip37_4387">
			<rect id="bin" width="21.000000" height="21.000000" fill="white" fill-opacity="0"/>
		</clipPath>
	</defs>
	<g clip-path="url(#clip37_4387)">
		<path id="path" d="M1.53 6.4L19.46 6.4C20.45 6.4 20.95 5.81 20.95 4.83L20.95 3.98C20.95 2.99 20.45 2.4 19.46 2.4L1.53 2.4C0.59 2.4 0.04 2.99 0.04 3.98L0.04 4.83C0.04 5.81 0.54 6.4 1.53 6.4ZM5.89 18.59L15.1 18.59C16.84 18.59 17.53 17.67 17.79 15.97L19.04 7.6L1.96 7.6L3.2 15.97C3.47 17.68 4.15 18.59 5.89 18.59ZM7.97 15.87C7.57 15.87 7.27 15.54 7.27 15.16C7.27 14.96 7.34 14.81 7.48 14.67L9.5 12.64L7.48 10.59C7.34 10.46 7.27 10.3 7.27 10.1C7.27 9.73 7.58 9.42 7.97 9.42C8.15 9.42 8.31 9.5 8.44 9.62L10.49 11.66L12.55 9.61C12.7 9.48 12.85 9.4 13.02 9.4C13.42 9.4 13.73 9.71 13.73 10.1C13.73 10.29 13.65 10.44 13.51 10.58L11.48 12.64L13.51 14.67C13.64 14.81 13.73 14.96 13.73 15.16C13.73 15.54 13.41 15.87 13.02 15.87C12.82 15.87 12.66 15.77 12.53 15.65L10.49 13.62L8.45 15.65C8.33 15.78 8.15 15.87 7.97 15.87Z" fill="#000000" fill-opacity="1.000000" fill-rule="nonzero"/>
	</g>
</svg>
