<svg width="25.000000" height="25.000000" viewBox="0 0 25 25" fill="none" xmlns="http://www.w3.org/2000/svg" xmlns:xlink="http://www.w3.org/1999/xlink">
	<desc>
			Created with Pixso.
	</desc>
	<defs>
		<clipPath id="clip37_4367">
			<rect id="cross" width="25.000000" height="25.000000" fill="white" fill-opacity="0"/>
		</clipPath>
	</defs>
	<g clip-path="url(#clip37_4367)">
		<path id="path" d="M4.76 4.76C4.83 4.69 4.91 4.62 5 4.57C5.08 4.51 5.17 4.46 5.27 4.42C5.36 4.38 5.46 4.35 5.56 4.33C5.66 4.31 5.76 4.3 5.87 4.3C5.97 4.3 6.07 4.31 6.17 4.33C6.27 4.35 6.37 4.38 6.46 4.42C6.56 4.46 6.65 4.51 6.73 4.57C6.82 4.62 6.9 4.69 6.97 4.76L12.5 10.29L18.02 4.76C18.09 4.69 18.17 4.63 18.26 4.57C18.34 4.52 18.43 4.47 18.53 4.43C18.62 4.4 18.72 4.37 18.82 4.35C18.92 4.33 19.02 4.32 19.12 4.32C19.22 4.32 19.32 4.33 19.42 4.35C19.52 4.37 19.62 4.4 19.71 4.44C19.8 4.48 19.89 4.53 19.98 4.59C20.06 4.64 20.14 4.71 20.21 4.78C20.28 4.85 20.35 4.93 20.4 5.01C20.46 5.1 20.51 5.19 20.55 5.28C20.59 5.37 20.62 5.47 20.64 5.57C20.66 5.67 20.67 5.77 20.67 5.87C20.67 5.97 20.66 6.07 20.64 6.17C20.62 6.27 20.59 6.37 20.56 6.46C20.52 6.56 20.47 6.65 20.42 6.73C20.36 6.82 20.3 6.9 20.23 6.97L14.7 12.5L20.23 18.02C20.3 18.09 20.36 18.17 20.42 18.26C20.47 18.34 20.52 18.43 20.56 18.53C20.59 18.62 20.62 18.72 20.64 18.82C20.66 18.92 20.67 19.02 20.67 19.12C20.67 19.22 20.66 19.32 20.64 19.42C20.62 19.52 20.59 19.62 20.55 19.71C20.51 19.8 20.46 19.89 20.4 19.98C20.35 20.06 20.28 20.14 20.21 20.21C20.14 20.28 20.06 20.35 19.98 20.4C19.89 20.46 19.8 20.51 19.71 20.55C19.62 20.59 19.52 20.62 19.42 20.64C19.32 20.66 19.22 20.67 19.12 20.67C19.02 20.67 18.92 20.66 18.82 20.64C18.72 20.62 18.62 20.59 18.53 20.56C18.43 20.52 18.34 20.47 18.26 20.42C18.17 20.36 18.09 20.3 18.02 20.23L12.5 14.7L6.97 20.23C6.9 20.3 6.82 20.36 6.73 20.42C6.65 20.47 6.56 20.52 6.46 20.56C6.37 20.59 6.27 20.62 6.17 20.64C6.07 20.66 5.97 20.67 5.87 20.67C5.77 20.67 5.67 20.66 5.57 20.64C5.47 20.62 5.37 20.59 5.28 20.55C5.19 20.51 5.1 20.46 5.01 20.4C4.93 20.35 4.85 20.28 4.78 20.21C4.71 20.14 4.64 20.06 4.59 19.98C4.53 19.89 4.48 19.8 4.44 19.71C4.4 19.62 4.37 19.52 4.35 19.42C4.33 19.32 4.32 19.22 4.32 19.12C4.32 19.02 4.33 18.92 4.35 18.82C4.37 18.72 4.4 18.62 4.43 18.53C4.47 18.43 4.52 18.34 4.57 18.26C4.63 18.17 4.69 18.09 4.76 18.02L10.29 12.5L4.76 6.97C4.69 6.9 4.62 6.82 4.57 6.73C4.51 6.65 4.46 6.56 4.42 6.46C4.38 6.37 4.35 6.27 4.33 6.17C4.31 6.07 4.3 5.97 4.3 5.87C4.3 5.76 4.31 5.66 4.33 5.56C4.35 5.46 4.38 5.36 4.42 5.27C4.46 5.17 4.51 5.08 4.57 5C4.62 4.91 4.69 4.83 4.76 4.76Z" fill="#000000" fill-opacity="1.000000" fill-rule="nonzero"/>
	</g>
</svg>
