<svg width="25.000000" height="25.000000" viewBox="0 0 25 25" fill="none" xmlns="http://www.w3.org/2000/svg" xmlns:xlink="http://www.w3.org/1999/xlink">
	<desc>
			Created with Pixso.
	</desc>
	<defs>
		<clipPath id="clip37_4379">
			<rect id="filter" width="25.000000" height="24.999998" fill="white" fill-opacity="0"/>
		</clipPath>
	</defs>
	<g clip-path="url(#clip37_4379)">
		<path id="path" d="M7.29 20.83L7.29 14.12C7.29 13.9 7.29 13.8 7.27 13.69C7.25 13.6 7.22 13.51 7.17 13.43C7.12 13.33 7.06 13.25 6.92 13.08L3.49 8.78C3.35 8.62 3.28 8.53 3.23 8.44C3.19 8.35 3.16 8.26 3.14 8.17C3.12 8.07 3.12 7.96 3.12 7.74L3.12 5.83C3.12 5.24 3.12 4.95 3.23 4.73C3.33 4.53 3.49 4.37 3.69 4.28C3.91 4.16 4.2 4.16 4.79 4.16L13.95 4.16C14.54 4.16 14.83 4.16 15.05 4.28C15.25 4.37 15.41 4.53 15.51 4.73C15.62 4.95 15.62 5.24 15.62 5.83L15.62 7.74C15.62 7.96 15.62 8.07 15.6 8.17C15.58 8.26 15.55 8.35 15.51 8.44C15.46 8.53 15.39 8.62 15.25 8.78L11.82 13.08C11.68 13.25 11.62 13.33 11.57 13.43C11.52 13.51 11.49 13.6 11.47 13.69C11.45 13.8 11.45 13.9 11.45 14.12L11.45 17.7L7.29 20.83ZM21.85 5.01L21.87 4.99C22.57 4.99 23.12 5.54 23.12 6.24C23.12 6.94 22.57 7.49 21.87 7.49L21.85 7.47L21.85 5.01ZM19.81 7.47L19.79 7.49C19.09 7.49 18.54 6.94 18.54 6.24C18.54 5.54 19.09 4.99 19.79 4.99L19.81 5.01L19.81 7.47ZM21.85 11.26L21.87 11.24C22.57 11.24 23.12 11.79 23.12 12.49C23.12 13.2 22.57 13.74 21.87 13.74L21.85 13.72L21.85 11.26ZM16.68 13.72L16.66 13.74C15.96 13.74 15.41 13.2 15.41 12.49C15.41 11.79 15.96 11.24 16.66 11.24L16.68 11.26L16.68 13.72ZM21.85 17.51L21.87 17.49C22.57 17.49 23.12 18.04 23.12 18.74C23.12 19.45 22.57 19.99 21.87 19.99L21.85 19.97L21.85 17.51ZM16.68 19.97L16.66 19.99C15.96 19.99 15.41 19.45 15.41 18.74C15.41 18.04 15.96 17.49 16.66 17.49L16.68 17.51L16.68 19.97Z" fill="#000000" fill-opacity="0" fill-rule="nonzero"/>
		<path id="path" d="M21.87 6.24L19.79 6.24M21.87 12.49L16.66 12.49M21.87 18.74L16.66 18.74M7.29 14.12C7.29 13.9 7.29 13.8 7.27 13.69C7.25 13.6 7.22 13.51 7.17 13.43C7.12 13.33 7.06 13.25 6.92 13.08L3.49 8.78C3.35 8.62 3.28 8.53 3.23 8.44C3.19 8.35 3.16 8.26 3.14 8.17C3.12 8.07 3.12 7.96 3.12 7.74L3.12 5.83C3.12 5.24 3.12 4.95 3.23 4.73C3.33 4.53 3.49 4.37 3.69 4.28C3.91 4.16 4.2 4.16 4.79 4.16L13.95 4.16C14.54 4.16 14.83 4.16 15.05 4.28C15.25 4.37 15.41 4.53 15.51 4.73C15.62 4.95 15.62 5.24 15.62 5.83L15.62 7.74C15.62 7.96 15.62 8.07 15.6 8.17C15.58 8.26 15.55 8.35 15.51 8.44C15.46 8.53 15.39 8.62 15.25 8.78L11.82 13.08C11.68 13.25 11.62 13.33 11.57 13.43C11.52 13.51 11.49 13.6 11.47 13.69C11.45 13.8 11.45 13.9 11.45 14.12L11.45 17.7L7.29 20.83L7.29 14.12Z" stroke="#000000" stroke-opacity="1.000000" stroke-width="2.500000" stroke-linejoin="round" stroke-linecap="round"/>
	</g>
</svg>
