<svg width="50.000000" height="50.000000" viewBox="0 0 50 50" fill="none" xmlns="http://www.w3.org/2000/svg" xmlns:xlink="http://www.w3.org/1999/xlink">
	<desc>
			Created with Pixso.
	</desc>
	<defs>
		<clipPath id="clip37_4369">
			<rect id="github" width="50.000000" height="50.000000" fill="white" fill-opacity="0"/>
		</clipPath>
	</defs>
	<g clip-path="url(#clip37_4369)">
		<path id="github-[#142]" d="M25 0C38.8 0 50 11.47 50 25.63C50 36.95 42.84 46.56 32.91 49.95C31.65 50.2 31.2 49.4 31.2 48.72C31.2 47.87 31.23 45.11 31.23 41.68C31.23 39.29 30.42 37.73 29.53 36.94C35.09 36.3 40.95 34.13 40.95 24.29C40.95 21.49 39.98 19.21 38.37 17.41C38.63 16.76 39.49 14.16 38.13 10.62C38.13 10.62 36.03 9.94 31.26 13.25C29.26 12.69 27.12 12.4 25 12.39C22.87 12.4 20.73 12.69 18.74 13.25C13.96 9.94 11.86 10.62 11.86 10.62C10.5 14.16 11.36 16.76 11.62 17.41C10.02 19.21 9.04 21.49 9.04 24.29C9.04 34.11 14.88 36.31 20.43 36.96C19.72 37.6 19.07 38.73 18.85 40.38C17.42 41.04 13.8 42.17 11.57 38.26C11.57 38.26 10.25 35.79 7.74 35.61C7.74 35.61 5.3 35.58 7.57 37.17C7.57 37.17 9.2 37.96 10.34 40.92C10.34 40.92 11.81 45.5 18.77 43.95C18.78 46.09 18.8 48.11 18.8 48.72C18.8 49.39 18.34 50.19 17.09 49.95C7.16 46.56 0 36.95 0 25.63C0 11.47 11.19 0 25 0Z" fill="#000000" fill-opacity="1.000000" fill-rule="evenodd"/>
		<path id="github-[#142]" d="M50 25.63C50 36.95 42.84 46.56 32.91 49.95C31.65 50.2 31.2 49.4 31.2 48.72C31.2 47.87 31.23 45.11 31.23 41.68C31.23 39.29 30.42 37.73 29.53 36.94C35.09 36.3 40.95 34.13 40.95 24.29C40.95 21.49 39.98 19.21 38.37 17.41C38.63 16.76 39.49 14.16 38.13 10.62C38.13 10.62 36.03 9.94 31.26 13.25C29.26 12.69 27.12 12.4 25 12.39C22.87 12.4 20.73 12.69 18.74 13.25C13.96 9.94 11.86 10.62 11.86 10.62C10.5 14.16 11.36 16.76 11.62 17.41C10.02 19.21 9.04 21.49 9.04 24.29C9.04 34.11 14.88 36.31 20.43 36.96C19.72 37.6 19.07 38.73 18.85 40.38C17.42 41.04 13.8 42.17 11.57 38.26C11.57 38.26 10.25 35.79 7.74 35.61C7.74 35.61 5.3 35.58 7.57 37.17C7.57 37.17 9.2 37.96 10.34 40.92C10.34 40.92 11.81 45.5 18.77 43.95C18.78 46.09 18.8 48.11 18.8 48.72C18.8 49.39 18.34 50.19 17.09 49.95C7.16 46.56 0 36.95 0 25.63C0 11.47 11.19 0 25 0C38.8 0 50 11.47 50 25.63Z" stroke="#000000" stroke-opacity="0" stroke-width="40.000000"/>
	</g>
</svg>
