<svg width="50.000000" height="50.000000" viewBox="0 0 50 50" fill="none" xmlns="http://www.w3.org/2000/svg" xmlns:xlink="http://www.w3.org/1999/xlink">
	<desc>
			Created with Pixso.
	</desc>
	<defs>
		<clipPath id="clip37_4370">
			<rect id="instagram" width="50.000000" height="50.000000" fill="white" fill-opacity="0"/>
		</clipPath>
	</defs>
	<g clip-path="url(#clip37_4370)">
		<path id="instagram-[#167]" d="M14.67 0.3C10.6 0.49 7.07 1.48 4.22 4.32C1.37 7.17 0.38 10.71 0.2 14.74C0.08 17.25 -0.58 36.24 1.36 41.22C2.66 44.58 5.24 47.16 8.63 48.48C10.21 49.09 12.02 49.51 14.67 49.63C36.82 50.63 45.03 50.09 48.5 41.22C49.11 39.64 49.53 37.84 49.65 35.2C50.66 12.99 49.49 8.17 45.62 4.32C42.56 1.26 38.96 -0.82 14.67 0.3ZM14.87 45.16C12.45 45.05 11.13 44.65 10.25 44.31C8.04 43.45 6.39 41.8 5.53 39.6C4.05 35.82 4.54 17.85 4.68 14.94C4.81 12.09 5.38 9.49 7.39 7.48C9.88 4.99 13.09 3.78 34.98 4.77C37.83 4.89 40.44 5.47 42.46 7.48C44.95 9.96 46.18 13.2 45.17 35C45.07 37.41 44.66 38.73 44.32 39.6C42.07 45.37 36.89 46.17 14.87 45.16ZM35.22 11.72C35.22 13.36 36.55 14.7 38.2 14.7C39.85 14.7 41.19 13.36 41.19 11.72C41.19 10.08 39.85 8.74 38.2 8.74C36.55 8.74 35.22 10.08 35.22 11.72ZM12.15 24.96C12.15 32 17.87 37.71 24.93 37.71C31.98 37.71 37.7 32 37.7 24.96C37.7 17.93 31.98 12.23 24.93 12.23C17.87 12.23 12.15 17.93 12.15 24.96ZM16.63 24.96C16.63 20.4 20.35 16.69 24.93 16.69C29.51 16.69 33.22 20.4 33.22 24.96C33.22 29.53 29.51 33.24 24.93 33.24C20.35 33.24 16.63 29.53 16.63 24.96Z" fill="#000000" fill-opacity="1.000000" fill-rule="evenodd"/>
		<path id="instagram-[#167]" d="M4.22 4.32C1.37 7.17 0.38 10.71 0.2 14.74C0.08 17.25 -0.58 36.24 1.36 41.22C2.66 44.58 5.24 47.16 8.63 48.48C10.21 49.09 12.02 49.51 14.67 49.63C36.82 50.63 45.03 50.09 48.5 41.22C49.11 39.64 49.53 37.84 49.65 35.2C50.66 12.99 49.49 8.17 45.62 4.32C42.56 1.26 38.96 -0.82 14.67 0.3C10.6 0.49 7.07 1.48 4.22 4.32ZM10.25 44.31C8.04 43.45 6.39 41.8 5.53 39.6C4.05 35.82 4.54 17.85 4.68 14.94C4.81 12.09 5.38 9.49 7.39 7.48C9.88 4.99 13.09 3.78 34.98 4.77C37.83 4.89 40.44 5.47 42.46 7.48C44.95 9.96 46.18 13.2 45.17 35C45.07 37.41 44.66 38.73 44.32 39.6C42.07 45.37 36.89 46.17 14.87 45.16C12.45 45.05 11.13 44.65 10.25 44.31ZM38.2 14.7C39.85 14.7 41.19 13.36 41.19 11.72C41.19 10.08 39.85 8.74 38.2 8.74C36.55 8.74 35.22 10.08 35.22 11.72C35.22 13.36 36.55 14.7 38.2 14.7ZM24.93 37.71C31.98 37.71 37.7 32 37.7 24.96C37.7 17.93 31.98 12.23 24.93 12.23C17.87 12.23 12.15 17.93 12.15 24.96C12.15 32 17.87 37.71 24.93 37.71ZM24.93 16.69C29.51 16.69 33.22 20.4 33.22 24.96C33.22 29.53 29.51 33.24 24.93 33.24C20.35 33.24 16.63 29.53 16.63 24.96C16.63 20.4 20.35 16.69 24.93 16.69Z" stroke="#000000" stroke-opacity="0" stroke-width="40.000000"/>
	</g>
</svg>
