<svg width="20.000000" height="20.000000" viewBox="0 0 20 20" fill="none" xmlns="http://www.w3.org/2000/svg" xmlns:xlink="http://www.w3.org/1999/xlink">
	<desc>
			Created with Pixso.
	</desc>
	<defs>
		<clipPath id="clip37_4384">
			<rect id="share" width="20.000000" height="20.000000" fill="white" fill-opacity="0"/>
		</clipPath>
	</defs>
	<g clip-path="url(#clip37_4384)">
		<path id="path" d="M13.75 7.5C15.82 7.5 17.5 5.82 17.5 3.75C17.5 1.67 15.82 0 13.75 0C11.67 0 10 1.67 10 3.75C10 4.02 10.03 4.3 10.08 4.56L6.08 7.06C5.44 6.55 4.63 6.25 3.75 6.25C1.67 6.25 0 7.92 0 10C0 12.07 1.67 13.75 3.75 13.75C4.63 13.75 5.44 13.44 6.08 12.93L10.08 15.43C10.03 15.69 10 15.97 10 16.25C10 18.32 11.67 20 13.75 20C15.82 20 17.5 18.32 17.5 16.25C17.5 14.17 15.82 12.5 13.75 12.5C12.86 12.5 12.05 12.8 11.41 13.31L7.41 10.81C7.46 10.55 7.5 10.27 7.5 10C7.5 9.72 7.46 9.44 7.41 9.18L11.41 6.68C12.05 7.19 12.86 7.5 13.75 7.5Z" fill="#000000" fill-opacity="1.000000" fill-rule="nonzero"/>
	</g>
</svg>
